<?xml version="1.0" encoding="utf-8"?>
<!-- Generator: Adobe Illustrator 24.0.0, SVG Export Plug-In . SVG Version: 6.00 Build 0)  -->
<svg version="1.1" id="레이어_1" xmlns="http://www.w3.org/2000/svg" xmlns:xlink="http://www.w3.org/1999/xlink" x="0px"
	 y="0px" viewBox="0 0 1366 768" style="enable-background:new 0 0 1366 768;" xml:space="preserve">
<g>
	<path d="M536.75,1276.73c-24.52,10.91-44.01,27.38-58.44,49.45c-14.44,22.07-21.66,46.73-21.66,73.97
		c0,27.25,7.22,51.9,21.66,73.97c14.43,22.06,33.92,38.55,58.44,49.44c17.98,8.17,36.78,12.26,56.4,12.26
		c33.78,0,63.47-11.44,89.08-34.32c5.44-3.81,10.9-5.72,16.35-5.72c6.54,0,12.53,2.73,17.98,8.17c4.35,4.9,6.26,10.77,5.72,17.57
		c-0.55,6.82-3.27,12.4-8.17,16.76c-17.44,14.71-36.51,26.15-57.21,34.33c-21.25,7.63-42.5,11.44-63.75,11.44
		c-25.62,0-50.96-5.44-76.01-16.35c-33.79-15.25-60.21-37.86-79.28-67.84c-19.08-29.96-28.6-63.2-28.6-99.71
		c0-37.05,9.53-70.42,28.6-100.12c19.07-29.69,45.49-52.17,79.28-67.43c25.06-10.89,50.39-16.35,76.01-16.35
		c21.25,0,42.5,3.82,63.75,11.44c20.7,8.17,39.77,19.61,57.21,34.32c4.36,3.82,7.08,9.54,8.17,17.16c0,7.09-1.91,12.81-5.72,17.16
		c-5.45,5.45-11.44,8.17-17.98,8.17s-11.99-2.17-16.35-6.54c-12.54-10.89-26.43-19.2-41.68-24.93c-15.26-5.72-31.06-8.58-47.4-8.58
		C573.53,1264.48,554.73,1268.56,536.75,1276.73z"/>
</g>
<g>
	<path d="M158.75,289.73c-24.52,10.91-44.01,27.38-58.44,49.45c-14.44,22.07-21.66,46.73-21.66,73.97c0,27.25,7.22,51.9,21.66,73.97
		c14.43,22.06,33.92,38.55,58.44,49.44c17.98,8.17,36.78,12.26,56.4,12.26c33.78,0,63.47-11.44,89.08-34.32
		c5.44-3.81,10.9-5.72,16.35-5.72c6.54,0,12.53,2.73,17.98,8.17c4.35,4.9,6.26,10.77,5.72,17.57c-0.55,6.82-3.27,12.4-8.17,16.76
		c-17.44,14.71-36.51,26.15-57.21,34.33c-21.25,7.63-42.5,11.44-63.75,11.44c-25.62,0-50.96-5.44-76.01-16.35
		c-33.79-15.25-60.21-37.86-79.28-67.84c-19.08-29.96-28.6-63.2-28.6-99.71c0-37.05,9.53-70.42,28.6-100.12
		c19.07-29.69,45.49-52.17,79.28-67.43c25.06-10.89,50.39-16.35,76.01-16.35c21.25,0,42.5,3.82,63.75,11.44
		c20.7,8.17,39.77,19.61,57.21,34.32c4.36,3.82,7.08,9.54,8.17,17.16c0,7.09-1.91,12.81-5.72,17.16
		c-5.45,5.45-11.44,8.17-17.98,8.17c-6.54,0-11.99-2.17-16.35-6.54c-12.54-10.89-26.43-19.2-41.68-24.93
		c-15.26-5.72-31.06-8.58-47.4-8.58C195.53,277.48,176.73,281.56,158.75,289.73z"/>
	<path d="M592.73,597.04c-25.62,0-49.45-4.77-71.51-14.3c-22.07-9.53-41.55-22.6-58.44-39.23c-16.9-16.61-30.11-35.96-39.64-58.03
		c-9.54-22.07-14.3-45.9-14.3-71.52c0-25.05,4.76-48.76,14.3-71.1c9.53-22.34,22.74-41.95,39.64-58.85
		c16.88-16.88,36.37-30.1,58.44-39.64c22.07-9.53,45.9-14.3,71.51-14.3c25.06,0,48.76,4.78,71.11,14.3
		c22.33,9.54,41.95,22.76,58.85,39.64c16.88,16.9,30.1,36.51,39.64,58.85c9.53,22.35,14.3,46.05,14.3,71.1
		c0,25.62-4.78,49.45-14.3,71.52c-9.54,22.07-22.76,41.41-39.64,58.03c-16.9,16.63-36.51,29.71-58.85,39.23
		C641.49,592.28,617.79,597.04,592.73,597.04z M592.73,278.29c-18.53,0-36.1,3.55-52.72,10.63c-16.63,7.09-31.06,16.75-43.32,29.01
		c-12.26,12.26-21.94,26.7-29.02,43.32c-7.09,16.63-10.62,34.2-10.62,52.71c0,18.53,3.54,36.1,10.62,52.72
		c7.08,16.63,16.76,31.06,29.02,43.32c12.26,12.26,26.69,21.94,43.32,29.02c16.62,7.09,34.19,10.62,52.72,10.62
		c18.52,0,36.09-3.54,52.72-10.62c16.62-7.08,31.06-16.76,43.32-29.02s21.93-26.69,29.01-43.32c7.08-16.61,10.63-34.18,10.63-52.72
		c0-18.52-3.55-36.09-10.63-52.71c-7.09-16.62-16.75-31.06-29.01-43.32c-12.26-12.26-26.7-21.93-43.32-29.01
		C628.82,281.84,611.25,278.29,592.73,278.29z"/>
	<path d="M1208.97,413.15c0,25.61-4.78,49.44-14.3,71.51c-9.54,22.07-22.76,41.55-39.64,58.44c-16.9,16.9-36.52,30.11-58.85,39.64
		c-22.35,9.54-46.05,14.3-71.1,14.3c-30.52,0-59.12-7.08-85.81-21.25c-17.98-10.34-34.61-23.42-49.86-39.23v194.52
		c0,6.54-2.32,12.26-6.94,17.16c-4.64,4.9-10.22,7.35-16.76,7.35s-12.26-2.45-17.16-7.35c-4.9-4.9-7.35-10.62-7.35-17.16V413.15
		c0-25.06,4.76-48.76,14.3-71.11c9.53-22.34,22.74-41.95,39.64-58.85c16.88-16.88,36.37-30.1,58.44-39.64
		c22.06-9.53,45.9-14.3,71.51-14.3c25.06,0,48.76,4.78,71.1,14.3c22.34,9.54,41.95,22.76,58.85,39.64
		c16.88,16.89,30.1,36.51,39.64,58.85C1204.19,364.39,1208.97,388.09,1208.97,413.15z M889.4,413.15c0,19.08,3.54,36.78,10.63,53.12
		c7.08,16.35,16.75,30.65,29.02,42.91c12.26,12.26,26.69,21.94,43.31,29.02c16.62,7.09,34.19,10.62,52.72,10.62
		c18.52,0,36.09-3.54,52.72-10.62c16.62-7.08,31.06-16.76,43.32-29.02c12.26-12.26,21.93-26.56,29.02-42.91
		c7.07-16.35,10.62-34.04,10.62-53.12c0-18.52-3.55-36.09-10.62-52.72c-7.09-16.62-16.76-31.06-29.02-43.32
		c-12.26-12.26-26.7-21.93-43.32-29.02c-16.62-7.07-34.2-10.63-52.72-10.63c-18.53,0-36.1,3.55-52.72,10.63
		c-16.62,7.09-31.05,16.75-43.31,29.02c-12.26,12.26-21.94,26.7-29.02,43.32C892.94,377.06,889.4,394.63,889.4,413.15z"/>
	<path d="M1310.3,597.04c-6.54,0-12.14-2.31-16.76-6.95c-4.64-4.62-6.95-10.22-6.95-16.75V54.35c0-6.54,2.31-12.26,6.95-17.16
		c4.62-4.9,10.22-7.36,16.76-7.36c6.54,0,12.11,2.45,16.75,7.36c4.62,4.9,6.95,10.63,6.95,17.16v518.99
		c0,6.54-2.33,12.13-6.95,16.75C1322.41,594.73,1316.84,597.04,1310.3,597.04z"/>
</g>
</svg>
